<?xml version="1.0" encoding="iso-8859-1"?>
<!-- Generator: Adobe Illustrator 19.1.0, SVG Export Plug-In . SVG Version: 6.00 Build 0)  -->
<svg version="1.1" id="Capa_1" xmlns="http://www.w3.org/2000/svg" xmlns:xlink="http://www.w3.org/1999/xlink" x="0px" y="0px"
	 viewBox="0 0 146.336 146.336" style="enable-background:new 0 0 146.336 146.336;" xml:space="preserve">
<g>
	<path d="M66.569,78.249c-1.652,0-3.108-1.201-3.375-2.884c-0.299-1.868,0.973-3.623,2.841-3.921l50.935-8.132
		c1.849-0.316,3.623,0.973,3.921,2.841c0.299,1.868-0.973,3.623-2.841,3.921l-50.934,8.132
		C66.932,78.236,66.749,78.249,66.569,78.249z"/>
	<path d="M61.839,131.552c-8.162,0-14.802-6.639-14.802-14.801c0-8.163,6.639-14.804,14.802-14.804
		c8.163,0,14.803,6.641,14.803,14.804C76.642,124.913,70.002,131.552,61.839,131.552z M61.839,108.796
		c-4.386,0-7.954,3.568-7.954,7.955c0,4.385,3.568,7.953,7.954,7.953c4.387,0,7.955-3.568,7.955-7.953
		C69.794,112.363,66.226,108.796,61.839,108.796z"/>
	<path d="M131.532,123.887c-8.163,0-14.802-6.639-14.802-14.802s6.639-14.804,14.802-14.804s14.803,6.641,14.803,14.804
		S139.695,123.887,131.532,123.887z M131.532,101.129c-4.386,0-7.953,3.568-7.953,7.955c0,4.386,3.568,7.954,7.953,7.954
		c4.387,0,7.955-3.568,7.955-7.954C139.487,104.698,135.919,101.129,131.532,101.129z"/>
	<g>
		<path d="M90.792,62.225c-0.796,0-1.592-0.276-2.234-0.83L76.623,50.82c-1.433-1.234-1.595-3.396-0.361-4.829
			c1.232-1.433,3.399-1.595,4.829-0.361l9.701,8.654l9.515-8.279c1.43-1.234,3.595-1.072,4.829,0.361
			c1.234,1.433,1.072,3.595-0.361,4.829L93.026,61.396C92.384,61.949,91.588,62.225,90.792,62.225z"/>
		<path d="M90.79,58.517c-1.838,0-3.357-1.458-3.421-3.307l-0.998-33.315c-0.063-1.891,1.416-3.475,3.305-3.54
			c1.945-0.059,3.475,1.417,3.54,3.305l0.998,33.315c0.064,1.891-1.416,3.475-3.305,3.54C90.869,58.517,90.829,58.517,90.79,58.517z
			"/>
	</g>
	<g>
		<path d="M53.255,41.206l23.698-0.829c4.69-0.133,4.958-7.089-0.36-6.841L53.065,34.36c-1.891,0.052-3.381,1.628-3.327,3.518
			C49.791,39.769,51.391,41.302,53.255,41.206z"/>
		<path d="M142.432,33.108c-0.674-0.771-1.657-1.219-2.675-1.171l-36.427,0.974c-4.32,0.086-4.269,6.969,0,6.851l32.469-0.863
			l-5.937,36.052L58.19,93.562l-21.757-72.74c-0.389-1.304-1.516-2.254-2.869-2.417L3.835,14.807
			c-1.869-0.219-3.583,1.11-3.81,2.988c-0.227,1.878,1.11,3.583,2.988,3.81l27.502,3.329l22.061,73.753
			c0.443,1.479,1.801,2.444,3.279,2.442c0.284,0,0.574-0.035,0.863-0.11l77.022-20c1.311-0.339,2.297-1.421,2.518-2.757
			l6.974-42.345C143.396,34.909,143.104,33.879,142.432,33.108z"/>
	</g>
</g>
<g>
</g>
<g>
</g>
<g>
</g>
<g>
</g>
<g>
</g>
<g>
</g>
<g>
</g>
<g>
</g>
<g>
</g>
<g>
</g>
<g>
</g>
<g>
</g>
<g>
</g>
<g>
</g>
<g>
</g>
</svg>
