<?xml version="1.0" standalone="no"?>
<!DOCTYPE svg PUBLIC "-//W3C//DTD SVG 20010904//EN"
 "http://www.w3.org/TR/2001/REC-SVG-20010904/DTD/svg10.dtd">
<svg version="1.0" xmlns="http://www.w3.org/2000/svg"
 width="882.000000pt" height="1280.000000pt" viewBox="0 0 882.000000 1280.000000"
 preserveAspectRatio="xMidYMid meet">
<metadata>
Created by potrace 1.15, written by Peter Selinger 2001-2017
</metadata>
<g transform="translate(0.000000,1280.000000) scale(0.100000,-0.100000)"
fill="#000000" stroke="none">
<path d="M8500 12791 c-14 -5 -995 -9 -2181 -10 l-2156 -1 -65 -137 c-262
-549 -432 -1230 -537 -2153 -48 -419 -64 -625 -70 -905 l-6 -290 -31 55 c-17
30 -37 76 -43 103 -25 103 -54 148 -167 257 -290 281 -451 374 -714 415 -146
23 -546 31 -796 16 -385 -23 -818 -73 -846 -98 -26 -24 -155 -291 -173 -362
-9 -35 -15 -82 -14 -105 3 -27 -6 -65 -23 -111 -15 -38 -43 -126 -62 -195 -19
-69 -46 -157 -60 -197 -41 -119 -50 -209 -50 -468 1 -307 25 -554 76 -765 11
-47 59 -181 105 -298 47 -117 83 -216 79 -219 -3 -4 -70 -19 -147 -35 -78 -16
-181 -43 -228 -59 -47 -17 -113 -35 -146 -40 -89 -14 -119 -26 -168 -70 -60
-52 -81 -108 -75 -192 12 -142 112 -239 248 -239 31 0 73 7 93 16 31 13 58 14
175 6 75 -5 209 -14 297 -20 88 -6 223 -15 301 -20 77 -5 217 -14 310 -20
l169 -11 290 -289 290 -289 157 -38 157 -38 3 -124 3 -125 830 -499 c821 -493
924 -553 998 -576 l37 -13 0 -549 0 -549 -80 0 -80 0 0 -485 c0 -291 -4 -485
-9 -485 -5 0 -11 7 -13 16 -3 14 -6 13 -22 -5 -17 -19 -18 -21 -2 -21 12 0 16
-6 12 -17 -3 -10 -8 -39 -12 -65 -5 -42 -10 -48 -38 -57 -17 -5 -146 -42 -286
-81 -140 -39 -412 -116 -605 -170 -544 -153 -1030 -290 -1380 -389 -176 -49
-423 -117 -550 -150 -126 -34 -246 -67 -265 -76 -19 -8 -87 -29 -150 -46 -63
-17 -119 -34 -123 -38 -4 -4 -3 -48 2 -97 5 -49 13 -134 16 -189 l7 -100 -114
0 c-106 0 -117 -2 -179 -31 -143 -68 -231 -191 -253 -351 l-6 -43 54 0 54 0 7
-48 c31 -220 252 -344 458 -257 92 39 174 150 184 251 l6 54 53 0 54 0 0 34
c0 48 -35 154 -65 199 -23 33 -26 46 -23 110 l3 72 38 3 37 3 0 68 0 67 83 16
c45 9 188 39 317 67 789 168 1134 241 1146 241 11 0 14 -18 14 -80 l0 -79 -32
5 c-18 3 -42 7 -54 9 -42 9 -151 -16 -220 -50 -126 -61 -223 -198 -232 -327
l-4 -58 50 0 50 0 12 -65 c39 -207 261 -325 448 -240 104 47 178 145 191 250
l6 50 54 3 54 3 -6 62 c-4 44 -17 83 -46 142 l-41 80 0 172 c0 94 3 174 7 176
5 3 159 37 343 77 184 39 460 98 612 130 303 65 344 67 333 21 -3 -14 -60
-195 -126 -402 l-119 -375 0 -141 0 -140 -77 -6 c-43 -3 -103 -14 -133 -26
-146 -55 -254 -194 -276 -354 l-6 -47 54 0 55 0 6 -49 c13 -112 90 -216 195
-264 71 -33 188 -31 262 4 102 49 176 150 187 255 l6 54 53 0 c50 0 54 2 54
23 0 45 -31 143 -60 190 -27 44 -30 57 -30 132 0 74 2 86 20 95 19 10 20 21
20 149 l0 138 173 387 172 387 138 -3 c126 -3 137 -2 137 14 0 10 2 18 4 18 3
0 1851 -413 1891 -423 12 -3 5 -5 -16 -6 -62 -2 -140 -20 -196 -46 -75 -34
-167 -125 -203 -200 -27 -57 -54 -171 -43 -187 2 -5 26 -8 52 -8 l48 0 12 -57
c16 -82 46 -137 102 -187 133 -120 322 -114 450 14 50 50 89 136 89 195 l0 35
56 0 57 0 -6 62 c-4 45 -17 84 -46 143 -46 90 -57 165 -23 165 9 0 163 -33
342 -74 l325 -73 3 -66 3 -66 37 -3 37 -3 3 -79 3 -79 -60 7 c-180 20 -357
-76 -437 -239 -24 -49 -37 -92 -41 -134 l-6 -61 57 0 56 0 0 -43 c0 -60 50
-156 107 -206 67 -59 140 -84 233 -79 162 10 275 117 306 290 6 37 7 37 57 40
l52 3 -3 43 c-4 54 -35 143 -62 181 -19 27 -20 44 -20 249 0 155 -3 221 -11
224 -9 3 -9 38 0 137 7 74 8 137 4 141 -4 4 -57 22 -118 39 -60 18 -123 38
-140 46 -16 8 -129 42 -250 75 -121 33 -301 84 -400 113 l-180 53 -3 107 c-1
59 -5 107 -7 107 -3 0 -83 20 -177 44 -95 25 -315 81 -488 125 -173 44 -522
132 -775 197 -253 64 -498 125 -544 136 -67 16 -91 27 -117 53 l-33 33 -10
428 c-6 235 -11 447 -11 470 l0 44 -90 0 -90 0 0 549 0 549 38 13 c20 6 64 25
97 41 l60 29 173 260 c198 298 161 266 407 352 187 65 308 90 440 91 101 1
115 -1 165 -26 99 -49 125 -105 141 -306 16 -210 29 -254 94 -311 34 -29 41
-31 83 -26 295 40 497 215 510 443 8 134 -53 299 -139 376 -172 156 -567 196
-1078 110 -184 -31 -177 -31 -149 9 21 30 23 45 28 201 l5 169 480 174 c264
95 703 254 975 352 725 263 787 289 917 393 202 160 319 439 355 841 22 249
-18 573 -108 869 -4 15 -1 17 24 12 32 -6 202 13 239 27 23 8 23 11 23 174 0
179 -7 213 -76 345 -24 47 -28 68 -29 145 -1 77 -6 101 -33 166 -29 67 -45 87
-140 180 -59 58 -124 119 -145 137 l-38 32 46 288 c102 635 133 803 191 1037
85 343 188 635 331 936 53 113 58 120 93 129 130 35 210 187 166 315 -35 104
-113 165 -219 171 -34 2 -73 -1 -87 -5z m-6440 -3161 c160 -14 317 -44 457
-85 125 -38 330 -132 400 -183 57 -43 94 -124 143 -317 47 -186 74 -248 134
-303 59 -54 106 -66 232 -58 l101 6 53 -117 c197 -442 190 -779 -20 -1063
l-50 -67 -587 -7 c-589 -7 -980 -18 -1298 -36 -209 -12 -433 -29 -461 -35 -19
-4 -25 9 -67 143 -191 608 -264 1127 -203 1445 33 169 133 415 200 494 110
127 581 216 966 183z m4530 -2901 c-381 -95 -1255 -289 -1303 -289 -3 0 18 24
47 53 32 32 56 66 61 85 6 27 16 37 78 66 134 63 298 104 523 131 180 21 191
21 549 22 l320 1 -275 -69z m-3975 -159 c77 -5 212 -14 300 -20 88 -6 223 -15
300 -20 77 -5 212 -14 300 -20 88 -6 223 -15 300 -20 77 -5 212 -14 300 -20
88 -6 223 -15 300 -20 77 -5 219 -14 315 -20 184 -11 280 -27 244 -41 -42 -17
-496 -79 -764 -105 -224 -21 -727 -30 -905 -15 -432 36 -775 133 -1005 286
l-55 36 115 -5 c63 -4 178 -11 255 -16z"/>
</g>
</svg>
